<svg width="49" height="56" viewBox="0 0 49 56" fill="none" xmlns="http://www.w3.org/2000/svg">
<g clip-path="url(#clip0_374_500)">
<path d="M8.19504 12.2351C7.22874 12.7592 6.74559 12.3252 6.91756 11.8994C6.99945 11.6865 7.59726 10.5318 11.0284 8.3945L17.5878 4.31641C16.9409 4.73404 16.7525 4.87325 16.0073 5.43829C14.8691 6.33089 14.1239 6.69941 12.224 8.37812C10.7009 9.72111 9.41519 11.5718 8.19504 12.2351Z" fill="#D2B695"/>
<path d="M7.8099 18.0737C8.36672 15.7399 8.62058 13.5452 6.27037 14.9947C1.4962 17.9509 -1.46824 25.4602 1.79097 26.32C3.89554 26.8687 6.4751 23.3229 7.8099 18.0737Z" fill="#D2B695"/>
<path d="M8.61188 33.2726C6.14702 26.877 2.91238 29.7349 1.81506 32.0115C-0.551552 36.9412 3.12527 42.2886 6.90858 41.2486C9.64369 40.4952 9.84022 36.6628 8.62007 33.2644" fill="#D2B695"/>
<path d="M18.2836 46.162C12.2565 41.9775 8.48954 43.8445 8.89899 47.1447C9.57048 52.6231 18.7913 53.3929 20.6584 50.5104C21.6656 48.9545 19.602 47.112 18.2836 46.1539" fill="#D2B695"/>
<path d="M32.5893 51.0098C22.4923 50.9361 21.8044 53.6794 22.697 54.6293C23.344 55.3172 25.2601 55.8413 28.5275 55.0797C31.885 54.2935 35.6766 52.3036 35.611 51.6076C35.5865 51.3537 35.2262 51.0507 32.5893 51.0098Z" fill="#D2B695"/>
<path d="M37.978 51.9432C37.2247 52.41 37.0691 52.4182 36.979 52.4182C36.979 52.41 36.9544 52.3936 36.9626 52.3854C37.2656 51.673 39.2965 50.8049 40.9588 49.896C42.2527 49.1917 43.3746 48.5775 44.6602 47.7832L37.9862 51.935" fill="#D2B695"/>
<path d="M46.4449 44.0982C44.8235 45.1955 44.3404 46.9315 41.1958 49.5029L48.0827 45.1873C48.8607 44.4093 49.0736 43.9425 48.7297 43.7214C48.5495 43.6068 47.6733 43.2138 46.4449 44.0982Z" fill="#D2B695"/>
<path d="M44.2915 5.46268C47.9192 8.29607 46.7646 11.8091 44.0295 12.2431C40.4427 12.8164 33.0644 8.19779 34.7514 5.61008C35.9142 3.82488 40.9668 3.09607 44.2915 5.46268Z" fill="#D2B695"/>
<path d="M29.9528 0.762207C33.5477 0.90142 33.2529 2.49011 32.565 3.20255C30.5587 5.25799 19.8885 5.81482 19.782 4.66836C19.7002 3.76758 25.9565 0.745837 29.9528 0.770404" fill="#D2B695"/>
<path d="M41.3355 49.3884C40.0007 50.5103 39.0672 51.2473 37.978 51.9434L44.652 47.7916C45.6511 47.161 45.9377 46.9481 46.5765 46.4814C47.2398 45.9573 47.5755 45.7034 48.0832 45.1875L41.3355 49.3803" fill="#D2B695"/>
<path d="M11.0278 8.3944C11.8222 7.91124 12.3954 7.55914 14.459 6.42087C16.2115 5.45457 18.1932 4.3654 18.4552 3.93139C18.3488 3.90682 18.2915 3.89046 17.5872 4.3081L11.0278 8.38621" fill="#D2B695"/>
<g opacity="0.14">
<path d="M46.4449 44.0982C44.8235 45.1955 44.3404 46.9315 41.1958 49.5029L48.0827 45.1873C48.8607 44.4093 49.0736 43.9425 48.7297 43.7214C48.5495 43.6068 47.6733 43.2138 46.4449 44.0982Z" fill="#000001"/>
<path d="M44.2915 5.46268C47.9192 8.29607 46.7646 11.8091 44.0295 12.2431C40.4427 12.8164 33.0644 8.19779 34.7514 5.61008C35.9142 3.82488 40.9668 3.09607 44.2915 5.46268Z" fill="#000001"/>
<path d="M29.9528 0.762207C33.5477 0.90142 33.2529 2.49011 32.565 3.20255C30.5587 5.25799 19.8885 5.81482 19.782 4.66836C19.7002 3.76758 25.9565 0.745837 29.9528 0.770404" fill="#000001"/>
<path d="M41.3355 49.3884C40.0007 50.5103 39.0672 51.2473 37.978 51.9434L44.652 47.7916C45.6511 47.161 45.9377 46.9481 46.5765 46.4814C47.2398 45.9573 47.5755 45.7034 48.0832 45.1875L41.3355 49.3803" fill="#000001"/>
<path d="M11.0278 8.3944C11.8222 7.91124 12.3954 7.55914 14.459 6.42087C16.2115 5.45457 18.1932 4.3654 18.4552 3.93139C18.3488 3.90682 18.2915 3.89046 17.5872 4.3081L11.0278 8.38621" fill="#000001"/>
</g>
</g>
<defs>
<clipPath id="clip0_374_500">
<rect width="49" height="55" fill="white" transform="translate(0 0.471191)"/>
</clipPath>
</defs>
</svg>
