<svg width="24" height="25" viewBox="0 0 24 25" fill="none" xmlns="http://www.w3.org/2000/svg">
<path d="M11.9808 20.8423V19.8423H18.3845C18.5385 19.8423 18.6796 19.7782 18.8078 19.65C18.9359 19.5219 19 19.3808 19 19.2268V6.45779C19 6.30379 18.9359 6.1627 18.8078 6.03454C18.6796 5.90637 18.5385 5.84229 18.3845 5.84229H11.9808V4.84229H18.3845C18.8448 4.84229 19.2292 4.99645 19.5375 5.30479C19.8458 5.61312 20 5.99745 20 6.45779V19.2268C20 19.6871 19.8458 20.0715 19.5375 20.3798C19.2292 20.6881 18.8448 20.8423 18.3845 20.8423H11.9808ZM11.2692 16.3808L10.5673 15.6615L12.8865 13.3423H4V12.3423H12.8865L10.5673 10.023L11.2692 9.30379L14.8078 12.8423L11.2692 16.3808Z" fill="white"/>
</svg>
