<svg width="208" height="56" viewBox="0 0 208 56" fill="none" xmlns="http://www.w3.org/2000/svg">
<g clip-path="url(#clip0_374_631)">
<path d="M75.3035 45.5554C75.3035 47.0376 74.7876 48.2414 73.764 49.1667C72.724 50.0921 71.4465 50.5589 69.9315 50.5589C67.9662 50.5589 66.4266 50.002 65.2966 48.8965C64.1665 47.7992 63.5933 46.4152 63.5933 44.7693C63.5933 43.1233 64.1665 41.7148 65.3293 40.6174C66.4758 39.5201 68.0153 38.9551 69.9397 38.9551C71.8641 38.9551 73.2973 39.34 74.5174 40.0852C74.1817 40.7321 73.9441 41.3954 73.7967 42.0505C72.9287 41.2152 71.643 40.7894 69.9397 40.7894C68.5722 40.7894 67.5485 41.1252 66.8279 41.813C66.1073 42.5009 65.7388 43.4836 65.7388 44.7611C65.7388 46.0385 66.0909 47.0048 66.8115 47.7009C67.5322 48.397 68.5722 48.7245 69.9397 48.7245C70.2755 48.7245 70.5866 48.6918 70.8896 48.6344C71.2008 48.5935 71.5038 48.487 71.815 48.3233C72.1262 48.1759 72.4046 47.9875 72.6339 47.7664C72.855 47.5453 73.0433 47.2341 73.2071 46.8574C73.3545 46.4889 73.4282 46.0631 73.4446 45.58H69.301V43.893H74.9269C75.1726 44.3352 75.3117 44.8756 75.3117 45.5389L75.3035 45.5554Z" fill="white"/>
<path d="M87.8651 48.4625V50.264H79.5537C79.6274 49.6335 79.6602 47.7992 79.6602 44.761C79.6602 41.7229 79.6274 39.8886 79.5537 39.2581H81.8139C81.7402 40.1507 81.6992 41.985 81.6992 44.761C81.6992 46.2433 81.7155 47.5207 81.7401 48.5771C84.8925 48.5771 86.9398 48.5362 87.8569 48.4625H87.8651Z" fill="white"/>
<path d="M92.2133 48.9455C91.0832 47.8727 90.5264 46.4806 90.5264 44.7609C90.5264 43.0412 91.0832 41.649 92.2133 40.5763C93.327 39.5035 94.7846 38.9631 96.5698 38.9631C98.355 38.9631 99.9437 39.4954 101.107 40.56C102.269 41.6327 102.843 43.0412 102.843 44.7609C102.843 46.4806 102.269 47.8727 101.107 48.9455C99.9437 50.0183 98.4369 50.5587 96.5698 50.5587C94.7027 50.5587 93.327 50.0183 92.2133 48.9455ZM99.567 47.6271C100.329 46.8901 100.713 45.9401 100.713 44.7609C100.713 43.5817 100.329 42.6318 99.567 41.8948C98.789 41.1578 97.79 40.7975 96.5698 40.7975C95.3497 40.7975 94.4571 41.166 93.7365 41.8948C93.0158 42.6318 92.6473 43.5817 92.6473 44.7609C92.6473 45.9401 93.0158 46.8901 93.7446 47.6271C94.4653 48.3723 95.407 48.7408 96.5616 48.7408C97.7818 48.7408 98.7809 48.3723 99.5588 47.6271H99.567Z" fill="white"/>
<path d="M117.534 46.7837C117.534 47.9875 117.166 48.8718 116.42 49.4287C115.675 49.9855 114.496 50.264 112.899 50.264H107.085C107.159 49.6335 107.191 47.7992 107.191 44.761C107.191 41.7229 107.159 39.8886 107.085 39.2581H112.899C114.488 39.2581 115.585 39.4382 116.191 39.7985C116.797 40.1588 117.1 40.8959 117.1 41.9686C117.1 42.4518 116.969 42.8776 116.691 43.2788C116.412 43.6801 116.027 43.9831 115.52 44.2042C116.871 44.6628 117.542 45.5226 117.542 46.7837H117.534ZM109.271 40.9286L109.23 43.5982L112.899 43.5818C113.71 43.5818 114.267 43.4754 114.562 43.2625C114.856 43.0577 115.004 42.6646 115.004 42.0586C115.004 41.6 114.873 41.3135 114.594 41.1497C114.316 41.0023 113.743 40.9286 112.907 40.9286H109.28H109.271ZM114.864 48.1512C115.249 47.8728 115.438 47.3733 115.438 46.6855C115.438 45.9976 115.274 45.5881 114.971 45.3916C114.652 45.2033 113.956 45.1132 112.899 45.1132H109.23C109.23 46.4644 109.247 47.6272 109.271 48.5935H112.899C113.824 48.5935 114.488 48.446 114.864 48.1512Z" fill="white"/>
<path d="M129.646 50.2639C129.703 49.9855 129.499 49.2649 129.016 48.1184H122.776C122.309 49.2485 122.104 49.9527 122.145 50.2639H119.606C119.885 49.8954 120.589 48.5279 121.736 46.1694L123.472 42.4516C124.356 40.56 124.806 39.4872 124.823 39.2498H126.968L130.187 46.1613C131.243 48.4378 131.947 49.8053 132.283 50.2557H129.654L129.646 50.2639ZM128.279 46.4479L128.148 46.1694L125.904 41.2479L123.66 46.1694L123.529 46.4479H128.287H128.279Z" fill="white"/>
<path d="M143.796 48.4625V50.264H135.484C135.558 49.6335 135.591 47.7992 135.591 44.761C135.591 41.7229 135.558 39.8886 135.484 39.2581H137.745C137.671 40.1507 137.63 41.985 137.63 44.761C137.63 46.2433 137.646 47.5207 137.671 48.5771C140.824 48.5771 142.871 48.5362 143.788 48.4625H143.796Z" fill="white"/>
<path d="M65.9434 28.8089C63.7652 26.688 62.6597 24.0266 62.6597 20.8574C62.6597 17.6883 63.7652 14.9696 66.0008 12.8486C68.2118 10.7277 71.1762 9.64673 74.8858 9.64673C78.5954 9.64673 81.3633 10.3837 83.7134 11.825C83.0665 13.1025 82.5834 14.4291 82.2968 15.8458C80.4543 14.0606 77.9976 13.1844 74.8776 13.1844C72.249 13.1844 70.2672 13.8313 68.8751 15.1661C67.4912 16.4927 66.7787 18.3926 66.7787 20.8574C66.7787 23.3223 67.4584 25.1894 68.8423 26.516C70.2263 27.8426 72.2408 28.4978 74.8694 28.4978C76.4253 28.4978 77.8666 28.1866 79.2014 27.5642C80.5035 26.9664 81.5762 26.1803 82.4032 25.1894C82.6571 26.4669 83.1975 27.6543 84.0164 28.7516C81.7236 30.9299 78.6937 32.0026 74.8776 32.0026C71.0616 32.0026 68.1135 30.9299 65.9353 28.8007L65.9434 28.8089Z" fill="white"/>
<path d="M112.588 20.8246C112.588 26.172 112.67 29.7096 112.817 31.4375H108.461C108.6 30.2747 108.657 26.9663 108.657 21.5288H95.3582C95.3582 26.4832 95.4401 29.7669 95.5875 31.4375H91.231C91.3702 30.2173 91.4275 26.6797 91.4275 20.8246C91.4275 14.9695 91.3702 11.4318 91.231 10.2117H95.5875C95.4728 11.7676 95.391 14.4536 95.3582 18.3024H108.657C108.633 13.8312 108.542 11.1452 108.461 10.2117H112.817C112.678 11.9395 112.588 15.4772 112.588 20.8246Z" fill="white"/>
<path d="M137.801 31.4374C137.916 30.8969 137.515 29.513 136.581 27.3019H124.552C123.643 29.4802 123.25 30.8396 123.332 31.4374H118.435C118.975 30.7331 120.334 28.0963 122.537 23.5432L125.878 16.386C127.573 12.7337 128.458 10.6701 128.482 10.2197H132.618L138.817 23.5514C140.856 27.9407 142.215 30.5693 142.862 31.4456H137.793L137.801 31.4374ZM135.173 24.0837L134.919 23.5432L130.587 14.0604L126.255 23.5432L126.001 24.0837H135.173Z" fill="white"/>
<path d="M148.504 10.2117H152.329V31.4375H148.504V10.2117Z" fill="white"/>
<path d="M182.571 27.5722C181.687 28.4156 181.113 30.4465 181.22 31.4374C178.591 31.4374 175.356 29.5703 173.694 27.5476C171.516 24.8862 170.861 22.2166 170.861 22.2166H165.571C165.595 27.1709 165.685 30.2254 165.8 31.4456H161.443C161.583 30.2254 161.64 26.6878 161.64 20.8326C161.64 14.9775 161.583 11.4399 161.443 10.2197H173.023C175.881 10.2197 177.977 10.6128 179.304 11.4399C180.63 12.2588 181.285 13.6509 181.285 15.6245C181.285 19.3914 178.812 21.9791 174.538 22.1265C175.504 26.5485 180.835 27.5148 182.587 27.5804L182.571 27.5722ZM165.652 13.438L165.571 18.9574H173.014C174.513 18.9574 175.561 18.7035 176.216 18.163C176.839 17.6553 177.15 16.8856 177.15 15.8456C177.15 14.9693 176.839 14.347 176.216 13.9785C175.594 13.61 174.521 13.438 173.014 13.438H165.652Z" fill="white"/>
<path d="M187.73 28.8908C188.803 27.5888 189.425 26.3686 189.573 25.214C190.449 26.2294 191.669 27.0565 193.167 27.6789C194.666 28.3258 196.279 28.637 198.064 28.637C199.678 28.637 200.98 28.3258 201.971 27.728C202.961 27.1302 203.445 26.254 203.445 25.1485C203.445 24.4442 203.191 23.871 202.65 23.4206C202.11 22.9948 201.43 22.659 200.587 22.4625C199.735 22.2659 198.801 22.0694 197.786 21.8974C196.738 21.7582 195.722 21.5617 194.674 21.2996C193.626 21.0376 192.693 20.7346 191.841 20.3415C190.989 19.973 190.31 19.3752 189.777 18.5891C189.237 17.7948 188.983 16.8366 188.983 15.6738C188.983 13.8313 189.859 12.39 191.612 11.2845C193.364 10.179 195.632 9.64673 198.4 9.64673C201.627 9.64673 204.485 10.3837 206.95 11.8578C206.303 13.0779 205.844 14.3226 205.566 15.6492C203.756 13.8067 201.381 12.9059 198.408 12.9059C196.738 12.9059 195.436 13.1352 194.502 13.6102C193.569 14.0933 193.086 14.6584 193.086 15.3626C193.086 16.0669 193.454 16.6401 194.158 17.0578C194.863 17.4754 195.772 17.7948 196.844 17.9667C197.917 18.1633 199.08 18.3926 200.325 18.7037C201.569 19.0149 202.732 19.3507 203.805 19.7192C204.878 20.0877 205.787 20.71 206.491 21.5863C207.195 22.4625 207.564 23.5352 207.564 24.8127C207.564 26.3113 207.113 27.6133 206.204 28.7189C205.295 29.8244 204.141 30.6433 202.724 31.1837C201.307 31.7242 199.751 32.0026 198.056 32.0026C193.724 32.0026 190.277 30.9544 187.73 28.8908Z" fill="white"/>
<path d="M8.19504 12.0786C7.22874 12.6027 6.74559 12.1687 6.91756 11.7429C6.99945 11.53 7.59726 10.3753 11.0284 8.23801L17.5878 4.15991C16.9409 4.57755 16.7525 4.71675 16.0073 5.28179C14.8691 6.17439 14.1239 6.54292 12.224 8.22163C10.7009 9.56462 9.41519 11.4153 8.19504 12.0786Z" fill="#D2B695"/>
<path d="M7.8099 17.9175C8.36672 15.5836 8.62058 13.389 6.27037 14.8384C1.4962 17.7947 -1.46824 25.3039 1.79097 26.1638C3.89554 26.7124 6.4751 23.1666 7.8099 17.9175Z" fill="#D2B695"/>
<path d="M8.61188 33.1163C6.14702 26.7207 2.91238 29.5787 1.81506 31.8552C-0.551552 36.785 3.12527 42.1324 6.90858 41.0924C9.64369 40.339 9.84022 36.5065 8.62007 33.1081" fill="#D2B695"/>
<path d="M18.2836 46.0058C12.2565 41.8212 8.48954 43.6883 8.89899 46.9884C9.57048 52.4669 18.7913 53.2366 20.6584 50.3541C21.6656 48.7982 19.602 46.9558 18.2836 45.9977" fill="#D2B695"/>
<path d="M32.5893 50.8535C22.4923 50.7798 21.8044 53.5231 22.697 54.473C23.344 55.1609 25.2601 55.685 28.5275 54.9234C31.885 54.1373 35.6766 52.1474 35.611 51.4513C35.5865 51.1974 35.2262 50.8945 32.5893 50.8535Z" fill="#D2B695"/>
<path d="M37.978 51.7872C37.2247 52.254 37.0691 52.2622 36.979 52.2622C36.979 52.254 36.9544 52.2376 36.9626 52.2294C37.2656 51.517 39.2965 50.6489 40.9588 49.74C42.2527 49.0357 43.3746 48.4215 44.6602 47.6272L37.9862 51.779" fill="#D2B695"/>
<path d="M46.4449 43.942C44.8235 45.0393 44.3404 46.7753 41.1958 49.3466L48.0827 45.031C48.8607 44.2531 49.0736 43.7863 48.7297 43.5652C48.5495 43.4505 47.6733 43.0576 46.4449 43.942Z" fill="#D2B695"/>
<path d="M44.2915 5.30643C47.9192 8.13982 46.7646 11.6529 44.0295 12.0869C40.4427 12.6601 33.0644 8.04154 34.7514 5.45383C35.9142 3.66863 40.9668 2.93982 44.2915 5.30643Z" fill="#D2B695"/>
<path d="M29.9528 0.605957C33.5477 0.74517 33.2529 2.33386 32.565 3.0463C30.5587 5.10174 19.8885 5.65857 19.782 4.51211C19.7002 3.61133 25.9565 0.589587 29.9528 0.614154" fill="#D2B695"/>
<path d="M41.3355 49.2322C40.0007 50.3541 39.0672 51.0911 37.978 51.7872L44.652 47.6353C45.6511 47.0048 45.9377 46.7919 46.5765 46.3251C47.2398 45.801 47.5755 45.5472 48.0832 45.0312L41.3355 49.224" fill="#D2B695"/>
<path d="M11.0278 8.23815C11.8222 7.75499 12.3954 7.40289 14.459 6.26462C16.2115 5.29832 18.1932 4.20915 18.4552 3.77514C18.3488 3.75057 18.2915 3.73421 17.5872 4.15185L11.0278 8.22996" fill="#D2B695"/>
<g opacity="0.14">
<path d="M46.4449 43.942C44.8235 45.0393 44.3404 46.7753 41.1958 49.3466L48.0827 45.031C48.8607 44.2531 49.0736 43.7863 48.7297 43.5652C48.5495 43.4505 47.6733 43.0576 46.4449 43.942Z" fill="#000001"/>
<path d="M44.2915 5.30643C47.9192 8.13982 46.7646 11.6529 44.0295 12.0869C40.4427 12.6601 33.0644 8.04154 34.7514 5.45383C35.9142 3.66863 40.9668 2.93982 44.2915 5.30643Z" fill="#000001"/>
<path d="M29.9528 0.605957C33.5477 0.74517 33.2529 2.33386 32.565 3.0463C30.5587 5.10174 19.8885 5.65857 19.782 4.51211C19.7002 3.61133 25.9565 0.589587 29.9528 0.614154" fill="#000001"/>
<path d="M41.3355 49.2322C40.0007 50.3541 39.0672 51.0911 37.978 51.7872L44.652 47.6353C45.6511 47.0048 45.9377 46.7919 46.5765 46.3251C47.2398 45.801 47.5755 45.5472 48.0832 45.0312L41.3355 49.224" fill="#000001"/>
<path d="M11.0278 8.23815C11.8222 7.75499 12.3954 7.40289 14.459 6.26462C16.2115 5.29832 18.1932 4.20915 18.4552 3.77514C18.3488 3.75057 18.2915 3.73421 17.5872 4.15185L11.0278 8.22996" fill="#000001"/>
</g>
</g>
<defs>
<clipPath id="clip0_374_631">
<rect width="208" height="55.685" fill="white"/>
</clipPath>
</defs>
</svg>
